<svg xmlns="http://www.w3.org/2000/svg" viewBox="0 0 512 512"><defs><style>.cls-1{fill:#020202;}.cls-2{fill:none;}</style></defs><title>Asset 6</title><g id="Layer_2" data-name="Layer 2"><g id="Layer_1-2" data-name="Layer 1"><path class="cls-1" d="M495.25,457.11q-7.11-34.5-15.47-68.77c-10.42-43-17.54-86.22-15.25-131,1.62-32.09,3.93-64.75-3.15-96.52C445.55,89.91,406.29,39.25,334.16,18.36A120,120,0,0,0,300,13.59c-44.35.32-89-3.1-132.94,1.42C95.51,22.41,39.23,77.7,21.7,150.44c-10.56,43.77-4.11,88.24-5.93,132.39a159.45,159.45,0,0,0,6.16,51.38c21.41,73.37,66,123.65,144.31,134.73,30.7,4.34,62.53.7,93.83.7v1.1c13,0,26.15,1.13,39-.23,36.63-3.82,71.66,2.92,106.38,13.59,16,4.92,32.63,7.87,48.66,12.76C486.66,506.82,501.16,485.55,495.25,457.11Zm-115.17-9.89c-20.66-6.31-41.49-8-62.64-6.8-40.45,2.34-80.92.95-121.37,1.1-73,.29-127.09-41.95-145.64-113-3.67-14-6.19-28.15-5.67-42.73,1.39-39.41-3.67-79,3.07-118.22,11-64.2,64.25-128.11,146.07-125.13,30.82,1.13,61.71,1.19,92.5,0,80.89-3.15,132.94,57.64,146.16,119.87,7.38,34.77,5.93,70.21,3.73,105.08-2.69,43.05,5.47,84,15,125.13,5.82,25.17,11,50.45,17,78.05C437.33,462.49,408.4,455.84,380.08,447.22Z"/><rect class="cls-2" width="512" height="512"/></g></g></svg>