<svg xmlns="http://www.w3.org/2000/svg" viewBox="0 0 491.38 317"><defs><style>.cls-1{fill:#231f20}.cls-2{fill:none}</style></defs><title>Asset 1</title><g id="Layer_2" data-name="Layer 2"><g id="Layer_1-2" data-name="Layer 1"><path d="M183.53,94.09l85-27.26a3.45,3.45,0,0,0,0-6.58L112.36,11.72C103.74,9,97.55,20,104.3,26l75.88,67.37A3.47,3.47,0,0,0,183.53,94.09Z" class="cls-1"/><path d="M207.46,156.28,173.32,298.65a9,9,0,0,0,11,10.76l6.54-1.71a9,9,0,0,0,5.42-4.07l103-172.12Z" class="cls-1"/><path d="M45.7,183.24l161.48-26.91a5.59,5.59,0,0,0,.56-.12l91.2-24.62c.19-.05.37-.12.55-.18L479.55,62.86a7.5,7.5,0,0,0,.35-14.17L421.23,37.76A76.67,76.67,0,0,0,368,37.59L114.29,130.68a5.86,5.86,0,0,1-4.45-.17L27.47,92.85a12.9,12.9,0,0,0-17.11,6.43h0a12.93,12.93,0,0,0,1.06,12.48L43.21,159s-13.79,3.33-14.68,7.34c-1,4.58,11.62,14.72,11.62,14.72A5.85,5.85,0,0,0,45.7,183.24Z" class="cls-1"/><rect width="491.38" height="317" class="cls-2"/></g></g></svg>