<svg xmlns="http://www.w3.org/2000/svg" viewBox="0 0 512 512"><defs><style>.cls-1{fill:#030303}.cls-2{fill:none}</style></defs><title>Asset 9</title><g id="Layer_2" data-name="Layer 2"><g id="Layer_1-2" data-name="Layer 1"><path d="M477.05,250.4c-13.22-13.19-25.51-27.35-39.12-40.11-9.23-8.67-13-17.78-12.63-30.67,1-34.14.34-68.33.32-102.5,0-23-3.31-26.24-27-26.25H342.57c-26.63,0-28.16,1.43-29.27,26.61-13.94-13-27.74-25.53-41-38.52-14.93-14.61-17.9-14.93-32.35-.07Q165.67,115.25,91.58,191.77C72.64,211.32,54,231.14,34.84,250.51c-5.41,5.47-8.58,11.34-5.69,18.5s9.51,9.46,17.07,9.23c5.87-.18,11.84.63,17.6-.18,11.38-1.6,14,2.86,13.92,13.95-.59,56.06-.32,112.12-.25,168.18,0,21.25,2.74,23.91,24,23.92q154.56,0,309.13,0c21.17,0,23.87-2.7,23.9-24,.07-49.65-.11-99.3.13-149,.05-10.5-4.53-23.74,2.05-30.78,6.05-6.48,19.2-1.73,29.21-2,7.55-.21,14.1-2.17,17-9.43S482.46,255.8,477.05,250.4Zm-50.56-1.05C411.15,248,405.72,255,405.84,270c.48,56.61-.18,113.22.49,169.82.14,12.41-2.86,16.09-15.72,16q-134.58-.9-269.15,0c-12.76.08-15.95-3.43-15.79-15.94.7-53.93.3-107.88.3-161.81,0-27.67,0-27.67-29.5-29.41C127.76,195.78,177,144.77,226.54,94c9.61-9.85,17.82-27.25,29.37-27.35s19.52,17.62,29.36,27.24,19.57,19.69,29,29.9c5.55,6,11.78,9.68,19.71,6.49,7.46-3,8.55-9.74,8.72-17.26.76-33.32,1-32.35,33.94-33.72,16.44-.68,21.59,3.54,20.72,20.47-1.54,29.83.19,59.81-.71,89.69-.42,13.87,2.55,24.87,13.81,33.51,8.84,6.78,17.08,14.33,24.47,20.59C431.8,250.9,428.64,249.55,426.49,249.35Z" class="cls-1"/><rect width="512" height="512" class="cls-2"/></g></g></svg>