<svg xmlns="http://www.w3.org/2000/svg" viewBox="0 0 512 512"><defs><style>.cls-1{fill:#030303;}.cls-2{fill:#fff;}.cls-3{fill:#070707;}.cls-4{fill:#080808;}.cls-5{fill:none;}</style></defs><title>Asset 5</title><g id="Layer_2" data-name="Layer 2"><g id="Layer_1-2" data-name="Layer 1"><path class="cls-1" d="M107.56,158.23A38.07,38.07,0,0,0,69.15,198c.8,20.88,18.88,38.06,39.42,37.5s38.13-19,37.75-39.41A38.39,38.39,0,0,0,107.56,158.23Zm.25,58.74c-12.11,0-20.37-7.46-19.92-20.92.45-12.18,7-19.29,19.4-19.4,13.39-.1,19.39,7.81,20,18.91C126.92,209.89,119.05,217,107.81,217Z"/><path class="cls-1" d="M138,266.41c-22.38-.38-39.28,16.35-39.11,38.72.14,21.72,16.52,38.1,38.07,38.14s38.13-16.38,38.37-37.93S159.19,266.76,138,266.41Zm.24,59.68c-13.43-2.18-21.79-8.92-21.41-21.58.38-12.46,8.29-20.47,21.13-20,11.87.45,19.16,8.39,19.4,20.05C157.56,317.28,149.27,323.87,138.2,326.09Z"/><path class="cls-1" d="M231.67,335.32A38.26,38.26,0,0,0,193.75,374c.17,20.79,17.8,38.45,38.48,38.52,21.34.1,39.48-18.6,38.68-39.91C270.12,351,253.32,335,231.67,335.32Zm-.21,58.81c-12.28-.8-19.84-8.78-18.63-22.14,1.11-12.24,8.33-18.9,20.51-18.32,13.29.66,18.84,9.2,18.87,21.83C250.72,387.92,242.91,394.82,231.46,394.13Z"/><path class="cls-1" d="M353,325.74c-20.58.14-38.38,17.87-38.55,38.52-.21,21.61,17.76,39,39.76,38.61,21.68-.41,37.4-16.89,37.06-39C391,342.5,374,325.64,353,325.74Zm-.8,58.85c-12.67-.14-18.84-8.54-18.81-20.12,0-12.88,8.4-20.75,20.82-20.23,11.38.45,18.63,7.94,19.15,20.47C372.05,377.41,365.11,384.73,352.21,384.59Z"/><path class="cls-1" d="M497.9,209.1c-1.63-27-14.85-37.23-41-31.86-98.65,20.27-189.72-19.36-242.77-105.61-29.57-48-84.32-55.45-124.46-16.31C29,114.41,5,185.81,15.06,270.16,31.37,407.59,160.34,503.49,296.28,477.58c119.6-22.8,202-121.34,202.87-247C498.9,226.37,498.42,217.73,497.9,209.1ZM436.55,370c-42.92,58.67-108.35,91.87-180.87,91.84C157.49,461.72,81.61,412.55,48,327.13,10.73,232.76,32,132.49,103,66.81c30.91-28.56,71.82-23,94.23,12.69,52.53,83.83,128,125,227.2,121.2a153.64,153.64,0,0,0,35.77-5.45c14.6-4.13,18.94,2.33,19.91,15C484.61,268.67,471.42,322.27,436.55,370Z"/><path class="cls-2" d="M107.56,158.23A38.07,38.07,0,0,0,69.15,198c.8,20.88,18.88,38.06,39.42,37.5s38.13-19,37.75-39.41A38.39,38.39,0,0,0,107.56,158.23Zm.25,58.74c-12.11,0-20.37-7.46-19.92-20.92.45-12.18,7-19.29,19.4-19.4,13.39-.1,19.39,7.81,20,18.91C126.92,209.89,119.05,217,107.81,217Z"/><path class="cls-2" d="M138,266.41c-22.38-.38-39.28,16.35-39.11,38.72.14,21.72,16.52,38.1,38.07,38.14s38.13-16.38,38.37-37.93S159.19,266.76,138,266.41Zm.24,59.68c-13.43-2.18-21.79-8.92-21.41-21.58.38-12.46,8.29-20.47,21.13-20,11.87.45,19.16,8.39,19.4,20.05C157.56,317.28,149.27,323.87,138.2,326.09Z"/><path class="cls-2" d="M231.67,335.32A38.26,38.26,0,0,0,193.75,374c.17,20.79,17.8,38.45,38.48,38.52,21.34.1,39.48-18.6,38.68-39.91C270.12,351,253.32,335,231.67,335.32Zm-.21,58.81c-12.28-.8-19.84-8.78-18.63-22.14,1.11-12.24,8.33-18.9,20.51-18.32,13.29.66,18.84,9.2,18.87,21.83C250.72,387.92,242.91,394.82,231.46,394.13Z"/><path class="cls-2" d="M353,325.74c-20.58.14-38.38,17.87-38.55,38.52-.21,21.61,17.76,39,39.76,38.61,21.68-.41,37.4-16.89,37.06-39C391,342.5,374,325.64,353,325.74Zm-.8,58.85c-12.67-.14-18.84-8.54-18.81-20.12,0-12.88,8.4-20.75,20.82-20.23,11.38.45,18.63,7.94,19.15,20.47C372.05,377.41,365.11,384.73,352.21,384.59Z"/><path class="cls-3" d="M231.67,335.32A38.26,38.26,0,0,0,193.75,374c.17,20.79,17.8,38.45,38.48,38.52,21.34.1,39.48-18.6,38.68-39.91C270.12,351,253.32,335,231.67,335.32Zm-.21,58.81c-12.28-.8-19.84-8.78-18.63-22.14,1.11-12.24,8.33-18.9,20.51-18.32,13.29.66,18.84,9.2,18.87,21.83C250.72,387.92,242.91,394.82,231.46,394.13Z"/><path class="cls-4" d="M107.56,158.23A38.07,38.07,0,0,0,69.15,198c.8,20.88,18.88,38.06,39.42,37.5s38.13-19,37.75-39.41A38.39,38.39,0,0,0,107.56,158.23Zm.25,58.74c-12.11,0-20.37-7.46-19.92-20.92.45-12.18,7-19.29,19.4-19.4,13.39-.1,19.39,7.81,20,18.91C126.92,209.89,119.05,217,107.81,217Z"/><path class="cls-3" d="M138,266.41c-22.38-.38-39.28,16.35-39.11,38.72.14,21.72,16.52,38.1,38.07,38.14s38.13-16.38,38.37-37.93S159.19,266.76,138,266.41Zm.24,59.68c-13.43-2.18-21.79-8.92-21.41-21.58.38-12.46,8.29-20.47,21.13-20,11.87.45,19.16,8.39,19.4,20.05C157.56,317.28,149.27,323.87,138.2,326.09Z"/><path class="cls-3" d="M353,325.74c-20.58.14-38.38,17.87-38.55,38.52-.21,21.61,17.76,39,39.76,38.61,21.68-.41,37.4-16.89,37.06-39C391,342.5,374,325.64,353,325.74Zm-.8,58.85c-12.67-.14-18.84-8.54-18.81-20.12,0-12.88,8.4-20.75,20.82-20.23,11.38.45,18.63,7.94,19.15,20.47C372.05,377.41,365.11,384.73,352.21,384.59Z"/><rect class="cls-5" width="512" height="512"/></g></g></svg>