<svg xmlns="http://www.w3.org/2000/svg" width="22" height="12" viewBox="0 0 22 12"><path id="ic_timeline_24px" d="M23,8a2.006,2.006,0,0,1-2,2,1.7,1.7,0,0,1-.51-.07l-3.56,3.55A1.766,1.766,0,0,1,17,14a2,2,0,0,1-4,0,1.766,1.766,0,0,1,.07-.52l-2.55-2.55a1.966,1.966,0,0,1-1.04,0L4.93,15.49A1.7,1.7,0,0,1,5,16a2,2,0,1,1-2-2,1.7,1.7,0,0,1,.51.07L8.07,9.52A1.766,1.766,0,0,1,8,9a2,2,0,0,1,4,0,1.766,1.766,0,0,1-.07.52l2.55,2.55a1.966,1.966,0,0,1,1.04,0l3.55-3.56A1.7,1.7,0,0,1,19,8a2,2,0,0,1,4,0Z" opacity=".25" transform="translate(-1 -6)"/></svg>